<svg xmlns="http://www.w3.org/2000/svg" xmlns:xlink="http://www.w3.org/1999/xlink" width="500" zoomAndPan="magnify" viewBox="0 0 375 374.999991" height="500" preserveAspectRatio="xMidYMid meet" version="1.0"><path fill="#0098da" d="M 323.476562 316.597656 L 374.464844 310.503906 L 341.917969 293.886719 C 362.78125 263.660156 375 227 375 187.496094 C 375 83.945312 291.050781 0 187.5 0 C 83.949219 0 0 83.945312 0 187.496094 C 0 249.039062 29.648438 303.660156 75.441406 337.847656 C 78.703125 321.632812 83.71875 306.445312 90.191406 292.710938 C 61.902344 266.53125 44.191406 229.085938 44.191406 187.496094 C 44.191406 108.347656 108.351562 44.1875 187.5 44.1875 C 266.648438 44.1875 330.808594 108.347656 330.808594 187.496094 C 330.808594 216.046875 322.464844 242.644531 308.074219 264.988281 L 301.910156 252.714844 L 291.824219 232.636719 L 289.5625 270.691406 L 288.460938 289.214844 L 287.847656 299.523438 L 286.566406 321.011719 L 295.140625 319.988281 Z M 323.476562 316.597656 " fill-opacity="1" fill-rule="evenodd"/><path fill="#323748" d="M 319.027344 181.289062 C 319.117188 183.347656 319.171875 185.414062 319.171875 187.496094 C 319.171875 189.582031 319.117188 191.652344 319.027344 193.707031 L 283.984375 193.707031 C 284.113281 191.703125 284.171875 189.679688 284.171875 187.644531 C 284.171875 185.507812 284.105469 183.390625 283.96875 181.289062 Z M 319.027344 181.289062 " fill-opacity="1" fill-rule="evenodd"/><path fill="#323748" d="M 106.980469 241.160156 L 76.691406 258.648438 C 74.457031 255.171875 72.378906 251.585938 70.46875 247.894531 L 100.773438 230.398438 C 102.609375 234.132812 104.6875 237.722656 106.980469 241.160156 Z M 106.980469 241.160156 " fill-opacity="1" fill-rule="evenodd"/><path fill="#323748" d="M 55.972656 193.707031 C 55.878906 191.648438 55.828125 189.582031 55.828125 187.496094 C 55.828125 185.414062 55.878906 183.347656 55.972656 181.289062 L 91.039062 181.289062 C 90.898438 183.390625 90.828125 185.507812 90.828125 187.644531 C 90.828125 189.679688 90.894531 191.703125 91.015625 193.707031 Z M 55.972656 193.707031 " fill-opacity="1" fill-rule="evenodd"/><path fill="#323748" d="M 70.46875 127.101562 C 72.375 123.414062 74.457031 119.824219 76.691406 116.351562 L 107.117188 133.921875 C 104.820312 137.351562 102.734375 140.9375 100.886719 144.660156 Z M 70.46875 127.101562 " fill-opacity="1" fill-rule="evenodd"/><path fill="#323748" d="M 116.351562 76.6875 C 119.828125 74.453125 123.414062 72.378906 127.105469 70.46875 L 144.699219 100.941406 C 140.96875 102.78125 137.375 104.859375 133.941406 107.148438 Z M 116.351562 76.6875 " fill-opacity="1" fill-rule="evenodd"/><path fill="#323748" d="M 181.289062 55.972656 C 183.351562 55.878906 185.417969 55.832031 187.5 55.832031 C 189.582031 55.832031 191.652344 55.878906 193.710938 55.972656 L 193.710938 91.167969 C 191.65625 91.039062 189.589844 90.96875 187.5 90.96875 C 185.417969 90.96875 183.34375 91.039062 181.289062 91.167969 Z M 181.289062 55.972656 " fill-opacity="1" fill-rule="evenodd"/><path fill="#323748" d="M 247.894531 70.46875 C 251.585938 72.378906 255.175781 74.453125 258.648438 76.6875 L 241.058594 107.148438 C 237.625 104.859375 234.03125 102.78125 230.300781 100.941406 Z M 247.894531 70.46875 " fill-opacity="1" fill-rule="evenodd"/><path fill="#323748" d="M 298.308594 116.351562 C 300.542969 119.824219 302.625 123.414062 304.53125 127.101562 L 274.113281 144.660156 C 272.265625 140.9375 270.175781 137.351562 267.882812 133.921875 Z M 298.308594 116.351562 " fill-opacity="1" fill-rule="evenodd"/><path fill="#323748" d="M 187.5 222.617188 C 163.886719 222.617188 144.742188 203.46875 144.742188 179.855469 C 144.742188 156.238281 163.886719 137.097656 187.5 137.097656 C 211.113281 137.097656 230.257812 156.238281 230.257812 179.855469 C 230.257812 203.46875 211.113281 222.617188 187.5 222.617188 Z M 187.5 222.617188 " fill-opacity="1" fill-rule="evenodd"/><path fill="#323748" d="M 281.265625 349.910156 C 253.6875 365.867188 221.65625 375 187.5 375 C 153.34375 375 121.320312 365.867188 93.734375 349.910156 C 103.539062 286.703125 141.800781 239.5625 187.5 239.5625 C 233.203125 239.5625 271.460938 286.703125 281.265625 349.910156 Z M 281.265625 349.910156 " fill-opacity="1" fill-rule="evenodd"/></svg>